<svg version="1.1" xmlns="http://www.w3.org/2000/svg" xmlns:xlink="http://www.w3.org/1999/xlink" width="844.37890625" height="679"><defs/><g><g transform="translate(-38,-62) scale(1,1)"><rect fill="#C0C0C0" stroke="none" x="55" y="127" width="119.89990234375" height="57" opacity="0.2"/></g><g transform="translate(-38,-62) scale(1,1)"><rect fill="#ffffff" stroke="none" x="48" y="120" width="119.89990234375" height="57"/></g><g transform="translate(-38,-62) scale(1,1)"><path fill="none" stroke="#000000" d="M 48 120 L 167.89990234375 120 L 167.89990234375 177 L 48 177 L 48 120 Z Z" stroke-miterlimit="10"/></g><g transform="translate(-38,-62) scale(1,1)"><path fill="none" stroke="#000000" d="M 48 145 L 167.89990234375 145" stroke-miterlimit="10"/></g><g transform="translate(-38,-62) scale(1,1)"><path fill="none" stroke="#000000" d="M 48 155 L 167.89990234375 155" stroke-miterlimit="10"/></g><g transform="translate(-38,-62) scale(1,1)"><g><path fill="none" stroke="none"/><text fill="#000000" stroke="none" font-family="Arial" font-size="13px" font-style="normal" font-weight="bold" text-decoration="none" x="80.858154296875" y="139.5">MainCalc</text></g></g><g transform="translate(-38,-62) scale(1,1)"><g><path fill="none" stroke="none"/><text fill="#000000" stroke="none" font-family="Arial" font-size="13px" font-style="normal" font-weight="normal" text-decoration="none" x="53" y="172.5">+main(args: String)</text></g></g><g transform="translate(-38,-62) scale(1,1)"><rect fill="#C0C0C0" stroke="none" x="311" y="79" width="307.10498046875" height="160" opacity="0.2"/></g><g transform="translate(-38,-62) scale(1,1)"><rect fill="#ffffff" stroke="none" x="304" y="72" width="307.10498046875" height="160"/></g><g transform="translate(-38,-62) scale(1,1)"><path fill="none" stroke="#000000" d="M 304 72 L 611.10498046875 72 L 611.10498046875 232 L 304 232 L 304 72 Z Z" stroke-miterlimit="10"/></g><g transform="translate(-38,-62) scale(1,1)"><path fill="none" stroke="#000000" d="M 304 97 L 611.10498046875 97" stroke-miterlimit="10"/></g><g transform="translate(-38,-62) scale(1,1)"><path fill="none" stroke="#000000" d="M 304 150 L 611.10498046875 150" stroke-miterlimit="10"/></g><g transform="translate(-38,-62) scale(1,1)"><g><path fill="none" stroke="none"/><text fill="#000000" stroke="none" font-family="Arial" font-size="13px" font-style="normal" font-weight="bold" text-decoration="none" x="444.54931640625" y="91.5">Calc</text></g></g><g transform="translate(-38,-62) scale(1,1)"><g><path fill="none" stroke="none"/><text fill="#000000" stroke="none" font-family="Arial" font-size="13px" font-style="normal" font-weight="normal" text-decoration="none" x="309" y="114.5">-miStack: Stack</text></g></g><g transform="translate(-38,-62) scale(1,1)"><g><path fill="none" stroke="none"/><text fill="#000000" stroke="none" font-family="Arial" font-size="13px" font-style="normal" font-weight="normal" text-decoration="none" x="309" y="129.5">-Factory: StackFactory</text></g></g><g transform="translate(-38,-62) scale(1,1)"><g><path fill="none" stroke="none"/><text fill="#000000" stroke="none" font-family="Arial" font-size="13px" font-style="normal" font-weight="normal" text-decoration="none" x="309" y="144.5">+Singleton: SingleStack</text></g></g><g transform="translate(-38,-62) scale(1,1)"><g><path fill="none" stroke="none"/><text fill="#000000" stroke="none" font-family="Arial" font-size="13px" font-style="normal" font-weight="normal" text-decoration="none" x="309" y="167.5">«create»+Calc(factory: boolean, singleton: boolean)</text></g></g><g transform="translate(-38,-62) scale(1,1)"><g><path fill="none" stroke="none"/><text fill="#000000" stroke="none" font-family="Arial" font-size="13px" font-style="normal" font-weight="normal" text-decoration="none" x="309" y="182.5">+sumar()</text></g></g><g transform="translate(-38,-62) scale(1,1)"><g><path fill="none" stroke="none"/><text fill="#000000" stroke="none" font-family="Arial" font-size="13px" font-style="normal" font-weight="normal" text-decoration="none" x="309" y="197.5">+restar()</text></g></g><g transform="translate(-38,-62) scale(1,1)"><g><path fill="none" stroke="none"/><text fill="#000000" stroke="none" font-family="Arial" font-size="13px" font-style="normal" font-weight="normal" text-decoration="none" x="309" y="212.5">+multiplicar()</text></g></g><g transform="translate(-38,-62) scale(1,1)"><g><path fill="none" stroke="none"/><text fill="#000000" stroke="none" font-family="Arial" font-size="13px" font-style="normal" font-weight="normal" text-decoration="none" x="309" y="227.5">+dividir()</text></g></g><g transform="translate(-38,-62) scale(1,1)"><rect fill="#C0C0C0" stroke="none" x="375" y="463" width="149.18798828125" height="57" opacity="0.2"/></g><g transform="translate(-38,-62) scale(1,1)"><rect fill="#ffffff" stroke="none" x="368" y="456" width="149.18798828125" height="57"/></g><g transform="translate(-38,-62) scale(1,1)"><path fill="none" stroke="#000000" d="M 368 456 L 517.18798828125 456 L 517.18798828125 513 L 368 513 L 368 456 Z Z" stroke-miterlimit="10"/></g><g transform="translate(-38,-62) scale(1,1)"><path fill="none" stroke="#000000" d="M 368 481 L 517.18798828125 481" stroke-miterlimit="10"/></g><g transform="translate(-38,-62) scale(1,1)"><path fill="none" stroke="#000000" d="M 368 504 L 517.18798828125 504" stroke-miterlimit="10"/></g><g transform="translate(-38,-62) scale(1,1)"><g><path fill="none" stroke="none"/><text fill="#000000" stroke="none" font-family="Arial" font-size="13px" font-style="normal" font-weight="bold" text-decoration="none" x="400.693115234375" y="475.5">StackArrayList</text></g></g><g transform="translate(-38,-62) scale(1,1)"><g><path fill="none" stroke="none"/><text fill="#000000" stroke="none" font-family="Arial" font-size="13px" font-style="normal" font-weight="normal" text-decoration="none" x="373" y="498.5">#data: ArrayList&lt;E&gt;</text></g></g><g transform="translate(-38,-62) scale(1,1)"><rect fill="#C0C0C0" stroke="none" x="239" y="319" width="166.85986328125" height="57" opacity="0.2"/></g><g transform="translate(-38,-62) scale(1,1)"><rect fill="#ffffff" stroke="none" x="232" y="312" width="166.85986328125" height="57"/></g><g transform="translate(-38,-62) scale(1,1)"><path fill="none" stroke="#000000" d="M 232 312 L 398.85986328125 312 L 398.85986328125 369 L 232 369 L 232 312 Z Z" stroke-miterlimit="10"/></g><g transform="translate(-38,-62) scale(1,1)"><path fill="none" stroke="#000000" d="M 232 337 L 398.85986328125 337" stroke-miterlimit="10"/></g><g transform="translate(-38,-62) scale(1,1)"><path fill="none" stroke="#000000" d="M 232 347 L 398.85986328125 347" stroke-miterlimit="10"/></g><g transform="translate(-38,-62) scale(1,1)"><g><path fill="none" stroke="none"/><text fill="#000000" stroke="none" font-family="Arial" font-size="13px" font-style="normal" font-weight="bold" text-decoration="none" x="277.502685546875" y="331.5">StackFactory</text></g></g><g transform="translate(-38,-62) scale(1,1)"><g><path fill="none" stroke="none"/><text fill="#000000" stroke="none" font-family="Arial" font-size="13px" font-style="normal" font-weight="normal" text-decoration="none" x="237" y="364.5">+getStack(): StackArrayList</text></g></g><g transform="translate(-38,-62) scale(1,1)"><rect fill="#C0C0C0" stroke="none" x="495" y="319" width="183.49072265625" height="72" opacity="0.2"/></g><g transform="translate(-38,-62) scale(1,1)"><rect fill="#ffffff" stroke="none" x="488" y="312" width="183.49072265625" height="72"/></g><g transform="translate(-38,-62) scale(1,1)"><path fill="none" stroke="#000000" d="M 488 312 L 671.49072265625 312 L 671.49072265625 384 L 488 384 L 488 312 Z Z" stroke-miterlimit="10"/></g><g transform="translate(-38,-62) scale(1,1)"><path fill="none" stroke="#000000" d="M 488 337 L 671.49072265625 337" stroke-miterlimit="10"/></g><g transform="translate(-38,-62) scale(1,1)"><path fill="none" stroke="#000000" d="M 488 347 L 671.49072265625 347" stroke-miterlimit="10"/></g><g transform="translate(-38,-62) scale(1,1)"><g><path fill="none" stroke="none"/><text fill="#000000" stroke="none" font-family="Arial" font-size="13px" font-style="normal" font-weight="bold" text-decoration="none" x="545.42041015625" y="331.5">SingleStack</text></g></g><g transform="translate(-38,-62) scale(1,1)"><g><path fill="none" stroke="none"/><text fill="#000000" stroke="none" font-family="Arial" font-size="13px" font-style="normal" font-weight="normal" text-decoration="none" x="493" y="364.5">-SingleStack()</text></g></g><g transform="translate(-38,-62) scale(1,1)"><g><path fill="none" stroke="none"/><text fill="#000000" stroke="none" font-family="Arial" font-size="13px" font-style="normal" font-weight="normal" text-decoration="none" x="493" y="379.5">+getInstance(): StackArrayList</text></g></g><g transform="translate(-38,-62) scale(1,1)"><path fill="#C0C0C0" stroke="none" d="M 436.5712890625 618.5 C 436.5712890625 612.1487248 441.7200138625 607 448.0712890625 607 C 454.4225642625 607 459.5712890625 612.1487248 459.5712890625 618.5 C 459.5712890625 624.8512752 454.4225642625 630 448.0712890625 630 C 441.7200138625 630 436.5712890625 624.8512752 436.5712890625 618.5 Z" opacity="0.2"/></g><g transform="translate(-38,-62) scale(1,1)"><path fill="#ffffff" stroke="none" d="M 429.5712890625 611.5 C 429.5712890625 605.1487248 434.7200138625 600 441.0712890625 600 C 447.4225642625 600 452.5712890625 605.1487248 452.5712890625 611.5 C 452.5712890625 617.8512752 447.4225642625 623 441.0712890625 623 C 434.7200138625 623 429.5712890625 617.8512752 429.5712890625 611.5 Z"/></g><g transform="translate(-38,-62) scale(1,1)"><path fill="none" stroke="#000000" d="M 429.5712890625 611.5 C 429.5712890625 605.1487248 434.7200138625 600 441.0712890625 600 C 447.4225642625 600 452.5712890625 605.1487248 452.5712890625 611.5 C 452.5712890625 617.8512752 447.4225642625 623 441.0712890625 623 C 434.7200138625 623 429.5712890625 617.8512752 429.5712890625 611.5 Z" stroke-miterlimit="10"/></g><g transform="translate(-38,-62) scale(1,1)"><path fill="none" stroke="#000000" d="M 384 648 L 498.142578125 648" stroke-miterlimit="10"/></g><g transform="translate(-38,-62) scale(1,1)"><g><path fill="none" stroke="none"/><text fill="#000000" stroke="none" font-family="Arial" font-size="13px" font-style="normal" font-weight="bold" text-decoration="none" x="425.900390625" y="642.5">stack</text></g></g><g transform="translate(-38,-62) scale(1,1)"><g><path fill="none" stroke="none"/><text fill="#000000" stroke="none" font-family="Arial" font-size="13px" font-style="normal" font-weight="normal" text-decoration="none" x="389" y="665.5">+push(item: E)</text></g></g><g transform="translate(-38,-62) scale(1,1)"><g><path fill="none" stroke="none"/><text fill="#000000" stroke="none" font-family="Arial" font-size="13px" font-style="normal" font-weight="normal" text-decoration="none" x="389" y="680.5">+pop(): E</text></g></g><g transform="translate(-38,-62) scale(1,1)"><g><path fill="none" stroke="none"/><text fill="#000000" stroke="none" font-family="Arial" font-size="13px" font-style="normal" font-weight="normal" text-decoration="none" x="389" y="695.5">+peek(): E</text></g></g><g transform="translate(-38,-62) scale(1,1)"><g><path fill="none" stroke="none"/><text fill="#000000" stroke="none" font-family="Arial" font-size="13px" font-style="normal" font-weight="normal" text-decoration="none" x="389" y="710.5">+size(): int</text></g></g><g transform="translate(-38,-62) scale(1,1)"><g><path fill="none" stroke="none"/><text fill="#000000" stroke="none" font-family="Arial" font-size="13px" font-style="normal" font-weight="normal" text-decoration="none" x="389" y="725.5">+empty(): boolean</text></g></g><g transform="translate(-38,-62) scale(1,1)"><path fill="#C0C0C0" stroke="none" d="M 787.689453125 170.5 C 787.689453125 164.1487248 792.838177925 159 799.189453125 159 C 805.540728325 159 810.689453125 164.1487248 810.689453125 170.5 C 810.689453125 176.8512752 805.540728325 182 799.189453125 182 C 792.838177925 182 787.689453125 176.8512752 787.689453125 170.5 Z" opacity="0.2"/></g><g transform="translate(-38,-62) scale(1,1)"><path fill="#ffffff" stroke="none" d="M 780.689453125 163.5 C 780.689453125 157.1487248 785.838177925 152 792.189453125 152 C 798.540728325 152 803.689453125 157.1487248 803.689453125 163.5 C 803.689453125 169.8512752 798.540728325 175 792.189453125 175 C 785.838177925 175 780.689453125 169.8512752 780.689453125 163.5 Z"/></g><g transform="translate(-38,-62) scale(1,1)"><path fill="none" stroke="#000000" d="M 780.689453125 163.5 C 780.689453125 157.1487248 785.838177925 152 792.189453125 152 C 798.540728325 152 803.689453125 157.1487248 803.689453125 163.5 C 803.689453125 169.8512752 798.540728325 175 792.189453125 175 C 785.838177925 175 780.689453125 169.8512752 780.689453125 163.5 Z" stroke-miterlimit="10"/></g><g transform="translate(-38,-62) scale(1,1)"><path fill="none" stroke="#000000" d="M 712 200 L 872.37890625 200" stroke-miterlimit="10"/></g><g transform="translate(-38,-62) scale(1,1)"><g><path fill="none" stroke="none"/><text fill="#000000" stroke="none" font-family="Arial" font-size="13px" font-style="normal" font-weight="bold" text-decoration="none" x="758.94677734375" y="194.5">calculadora</text></g></g><g transform="translate(-38,-62) scale(1,1)"><g><path fill="none" stroke="none"/><text fill="#000000" stroke="none" font-family="Arial" font-size="13px" font-style="normal" font-weight="normal" text-decoration="none" x="717" y="217.5">+operar(expresion: String)</text></g></g><g transform="translate(-38,-62) scale(1,1)"><path fill="none" stroke="#000000" d="M 442 514 L 441 600" stroke-miterlimit="10"/></g><g transform="translate(-38,-62) scale(1,1)"><g><path fill="none" stroke="none"/><text fill="#000000" stroke="none" font-family="Arial" font-size="13px" font-style="normal" font-weight="normal" text-decoration="none" x="453.5" y="564.5">+implementa</text></g></g><g transform="translate(-38,-62) scale(1,1)"><path fill="none" stroke="#000000" d="M 341 370 L 416 455" stroke-miterlimit="10"/></g><g transform="translate(-38,-62) scale(1,1)"><path fill="none" stroke="#000000" d="M 406.11969865722506 450.1647497090678 L 416 455 L 412.4326101898097 444.5945336509049" stroke-miterlimit="10"/></g><g transform="translate(-38,-62) scale(1,1)"><g><path fill="none" stroke="none"/><text fill="#000000" stroke="none" font-family="Arial" font-size="13px" font-style="normal" font-weight="normal" text-decoration="none" x="375.1708984375" y="408.5">+crea</text></g></g><g transform="translate(-38,-62) scale(1,1)"><path fill="none" stroke="#000000" d="M 542 385 L 471 455" stroke-miterlimit="10"/></g><g transform="translate(-38,-62) scale(1,1)"><path fill="none" stroke="#000000" d="M 475.28148578775233 444.86743470540284 L 471 455 L 481.1922732646986 450.86266200344835" stroke-miterlimit="10"/></g><g transform="translate(-38,-62) scale(1,1)"><g><path fill="none" stroke="none"/><text fill="#000000" stroke="none" font-family="Arial" font-size="13px" font-style="normal" font-weight="normal" text-decoration="none" x="499.5" y="436.5">+crea</text></g></g><g transform="translate(-38,-62) scale(1,1)"><path fill="none" stroke="#000000" d="M 396 233 L 337 311" stroke-miterlimit="10"/></g><g transform="translate(-38,-62) scale(1,1)"><path fill="#FFFFFF" stroke="none" d="M 339.7735497227785 300.3554040971357 L 337 311 L 346.48806176284063 305.43432987102886 L 350.27187263504976 293.4541344824766"/></g><g transform="translate(-38,-62) scale(1,1)"><path fill="none" stroke="#000000" d="M 339.7735497227785 300.3554040971357 L 337 311 L 346.48806176284063 305.43432987102886 L 350.27187263504976 293.4541344824766 L 339.7735497227785 300.3554040971357" stroke-miterlimit="10"/></g><g transform="translate(-38,-62) scale(1,1)"><g><path fill="none" stroke="none"/><text fill="#000000" stroke="none" font-family="Arial" font-size="13px" font-style="normal" font-weight="normal" text-decoration="none" x="374.5" y="286.5">+tiene</text></g></g><g transform="translate(-38,-62) scale(1,1)"><path fill="none" stroke="#000000" d="M 507 233 L 556 311" stroke-miterlimit="10"/></g><g transform="translate(-38,-62) scale(1,1)"><path fill="#FFFFFF" stroke="none" d="M 547.0294535338899 304.63373766646714 L 556 311 L 554.1584930297181 300.15523849601095 L 544.2971176913047 292.3709220392198"/></g><g transform="translate(-38,-62) scale(1,1)"><path fill="none" stroke="#000000" d="M 547.0294535338899 304.63373766646714 L 556 311 L 554.1584930297181 300.15523849601095 L 544.2971176913047 292.3709220392198 L 547.0294535338899 304.63373766646714" stroke-miterlimit="10"/></g><g transform="translate(-38,-62) scale(1,1)"><g><path fill="none" stroke="none"/><text fill="#000000" stroke="none" font-family="Arial" font-size="13px" font-style="normal" font-weight="normal" text-decoration="none" x="525.5" y="269.5">+tiene</text></g></g><g transform="translate(-38,-62) scale(1,1)"><path fill="none" stroke="#000000" d="M 169 149 L 303 150" stroke-miterlimit="10" stroke-dasharray="3"/></g><g transform="translate(-38,-62) scale(1,1)"><path fill="none" stroke="#000000" d="M 292.80619468193873 154.13356179794928 L 303 150 L 292.86902155571977 145.71476071128697" stroke-miterlimit="10"/></g><g transform="translate(-38,-62) scale(1,1)"><g><path fill="none" stroke="none"/><text fill="#000000" stroke="none" font-family="Arial" font-size="13px" font-style="normal" font-weight="normal" text-decoration="none" x="221.5" y="140.5">+usa</text></g></g><g transform="translate(-38,-62) scale(1,1)"><path fill="none" stroke="#000000" d="M 612 168 L 780.689453125 165.23418209876544" stroke-miterlimit="10"/></g><g transform="translate(-38,-62) scale(1,1)"><g><path fill="none" stroke="none"/><text fill="#000000" stroke="none" font-family="Arial" font-size="13px" font-style="normal" font-weight="normal" text-decoration="none" x="657.5" y="157.5">+implementa</text></g></g><g transform="translate(-38,-62) scale(1,1)"><path fill="none" stroke="#000000" d="M 453 233 L 443 455" stroke-miterlimit="10"/></g><g transform="translate(-38,-62) scale(1,1)"><path fill="#FFFFFF" stroke="none" d="M 439.2520608532253 444.6581939608174 L 443 455 L 447.66256799386315 445.0370456338191 L 443.98998713025094 433.0222857084287"/></g><g transform="translate(-38,-62) scale(1,1)"><path fill="none" stroke="#000000" d="M 439.2520608532253 444.6581939608174 L 443 455 L 447.66256799386315 445.0370456338191 L 443.98998713025094 433.0222857084287 L 439.2520608532253 444.6581939608174" stroke-miterlimit="10"/></g><g transform="translate(-38,-62) scale(1,1)"><g><path fill="none" stroke="none"/><text fill="#000000" stroke="none" font-family="Arial" font-size="13px" font-style="normal" font-weight="normal" text-decoration="none" x="455.5" y="284.5">+tiene</text></g></g></g></svg>